<svg width="30" height="30" viewBox="0 0 30 30" fill="none" xmlns="http://www.w3.org/2000/svg">
<circle cx="15" cy="15" r="15" fill="#DAE1E5"/>
<path fill-rule="evenodd" clip-rule="evenodd" d="M9.29543 19.2783C8.90161 19.6721 8.90161 20.3106 9.29544 20.7044C9.68926 21.0982 10.3278 21.0982 10.7216 20.7044L14.9999 16.4262L19.2785 20.7046C19.6723 21.0984 20.3108 21.0984 20.7046 20.7046C21.0984 20.3108 21.0984 19.6723 20.7046 19.2785L16.4261 15L20.7047 10.7215C21.0985 10.3277 21.0985 9.68918 20.7047 9.29536C20.3109 8.90155 19.6723 8.90155 19.2785 9.29536L14.9999 13.5739L10.7215 9.29559C10.3277 8.90178 9.68919 8.90178 9.29537 9.29559C8.90154 9.68941 8.90154 10.3279 9.29537 10.7217L13.5737 15L9.29543 19.2783Z" fill="#7B7E83"/>
</svg>
