<svg width="18" height="18" viewBox="0 0 18 18" fill="none" xmlns="http://www.w3.org/2000/svg">
<path fill-rule="evenodd" clip-rule="evenodd" d="M9 18C13.9706 18 18 13.9706 18 9C18 4.02944 13.9706 0 9 0C4.02944 0 0 4.02944 0 9C0 13.9706 4.02944 18 9 18ZM8 6C8 5.44772 8.44772 5 9 5C9.55228 5 10 5.44772 10 6V8H12C12.5523 8 13 8.44772 13 9C13 9.55228 12.5523 10 12 10H10V12C10 12.5523 9.55228 13 9 13C8.44772 13 8 12.5523 8 12V10H6C5.44772 10 5 9.55228 5 9C5 8.44772 5.44772 8 6 8H8V6Z" fill="black"/>
</svg>
